:SAMPLES-PER-SECOND 30
:FRAME-RANGE 1-3358
:FULLY-SPECIFIED
:DEGREES
2309
root  68.358 37.6794 -9.82534 173.013 -81.7368 -163.22
RightUpLeg  -30.2121 -4.47503 -18.9598
RightLeg  29.1726 -5.20942 -3.36599
RightFoot  -7.99675 -0.364226 10.5789
RightToes  -1.11029e-010 1.2921e-014 -6.02303e-014
Spine  7.06104 -3.02297 0.652769
Spine1  0.667486 -2.97277 0.317477
HEad  -7.31601 -5.05523 1.51743
LeftShoulder1  1.28071 -3.8462 -10.9311
LeftArm  11.6646 3.35965 -27.4285
LeftForeArm  39.311 -18.6976 -5.49906
LeftHand  0.312294 8.50002 12.5838
RightShoulder  0.991862 0.950066 16.5739
RightArm  -37.9217 1.64323 21.6503
RightForeArm  -2.6805 -4.74142 -5.7596
RightHand  -0.027239 -5.31906 -5.5469
LeftUpLeg  -16.0866 -0.059344 5.81654
LeftLeg  35.0584 0.196202 0.53102
LeftFoot  -25.6022 -0.547281 -5.60053
LeftToes  -1.90334e-010 -8.83595e-011 4.99953e-011
2310
root  68.2991 36.4323 -11.3344 -175.773 -82.9908 -175.943
RightUpLeg  -31.3234 -3.8991 -24.412
RightLeg  28.3071 -5.43261 -3.38674
RightFoot  -5.64789 -0.56322 10.5229
RightToes  -1.11029e-010 1.2921e-014 -6.02303e-014
Spine  9.97699 -2.81135 -3.39122
Spine1  0.313848 -3.19719 1.33072
HEad  -9.91943 -5.16622 3.27187
LeftShoulder1  1.28229 -3.93069 -10.7232
LeftArm  8.33454 0.782786 -25.6435
LeftForeArm  43.6192 -14.9249 -7.91028
LeftHand  0.322187 8.5061 12.9052
RightShoulder  0.974246 0.814057 16.9387
RightArm  -37.1718 2.69961 22.9209
RightForeArm  -2.72028 -4.85809 -5.10218
RightHand  -0.00211879 -5.82194 -6.26457
LeftUpLeg  -16.9033 0.181101 6.90495
LeftLeg  41.4097 -1.56877 -1.07058
LeftFoot  -31.0607 -0.953454 -6.5571
LeftToes  -1.90334e-010 -8.83595e-011 4.99953e-011
2311
root  67.9089 35.5078 -13.0406 -157.424 -82.717 165.437
RightUpLeg  -33.1041 -2.74215 -28.9765
RightLeg  28.3154 -3.06994 -2.01573
RightFoot  -7.31471 -0.432254 10.8458
RightToes  -1.11029e-010 1.2921e-014 -6.02303e-014
Spine  9.50901 -2.81323 -5.18998
Spine1  1.68396 -2.83739 -0.958199
HEad  -11.5816 -5.38034 4.46919
LeftShoulder1  1.30158 -3.91477 -11.0635
LeftArm  0.939234 -2.68787 -23.273
LeftForeArm  51.4865 -8.1975 -10.6066
LeftHand  0.082727 6.12745 15.3214
RightShoulder  1.07541 1.11712 17.69
RightArm  -38.2123 1.37302 25.7471
RightForeArm  0.162035 -4.84152 -5.40768
RightHand  -0.0210194 -5.43401 -6.48547
LeftUpLeg  -17.184 2.24342 7.94991
LeftLeg  45.0876 -3.85055 -3.70045
LeftFoot  -33.6421 -1.40897 -8.16782
LeftToes  -1.90334e-010 -8.83595e-011 4.99953e-011
2312
root  67.1247 35.1722 -14.8994 -159.712 -81.3181 167.705
RightUpLeg  -34.1187 -0.903651 -28.4778
RightLeg  28.736 0.82674 0.266832
RightFoot  -5.5833 -0.808947 15.2416
RightToes  -1.11029e-010 1.2921e-014 -6.02303e-014
Spine  7.96063 -2.70248 -3.78562
Spine1  2.04044 -1.92314 -4.02645
HEad  -10.3902 -4.96566 2.85059
LeftShoulder1  1.29462 -3.33973 -12.6744
LeftArm  -2.32757 -4.39335 -21.3858
LeftForeArm  52.3491 -3.11533 -11.4088
LeftHand  0.261395 7.85506 13.3367
RightShoulder  1.18195 1.60451 17.4526
RightArm  -37.5605 1.57629 27.5594
RightForeArm  1.60338 -4.92623 -5.02435
RightHand  -0.0388511 -5.07289 -6.08727
LeftUpLeg  -13.9221 4.31095 11.4501
LeftLeg  43.4013 -5.58237 -5.21451
LeftFoot  -34.6012 -2.04488 -10.924
LeftToes  -1.90334e-010 -8.83595e-011 4.99953e-011
2313
root  66.1207 35.0615 -17.1021 -157.971 -80.8458 166.167
RightUpLeg  -34.6548 0.74691 -26.8917
RightLeg  32.7034 1.4782 0.787525
RightFoot  -7.55781 -0.942766 26.5152
RightToes  -1.11029e-010 1.2921e-014 -6.02303e-014
Spine  5.78359 -2.92535 -4.46048
Spine1  2.02937 -1.96824 -4.7882
HEad  -8.44471 -4.48769 0.228352
LeftShoulder1  1.20194 -2.40333 -14.403
LeftArm  -2.12166 -3.08495 -19.9158
LeftForeArm  49.7401 -3.53558 -11.4241
LeftHand  0.221844 7.39516 13.9769
RightShoulder  1.18741 1.75585 16.7913
RightArm  -37.6467 2.3658 28.5718
RightForeArm  3.26834 -4.93539 -5.06798
RightHand  -0.0236467 -5.38763 -6.22502
LeftUpLeg  -10.2398 3.90325 15.1105
LeftLeg  40.1471 -7.32962 -6.18507
LeftFoot  -32.404 -2.76717 -15.8478
LeftToes  -1.90334e-010 -8.83595e-011 4.99953e-011
2314
root  65.1223 35.4024 -19.2708 -153.648 -81.6196 161.867
RightUpLeg  -35.3766 -1.49262 -23.1645
RightLeg  38.959 2.91607 2.26541
RightFoot  -11.2063 -0.102551 21.6067
RightToes  -1.11029e-010 1.2921e-014 -6.02303e-014
Spine  5.12981 -3.39282 -4.81924
Spine1  0.89184 -2.57629 -4.37793
HEad  -7.92961 -4.57042 -1.45844
LeftShoulder1  1.17325 -2.01611 -15.4893
LeftArm  0.448592 -0.980941 -18.7186
LeftForeArm  45.6963 -5.71986 -11.4907
LeftHand  0.234086 7.38724 14.6749
RightShoulder  1.13627 1.51993 16.8739
RightArm  -36.8591 2.40414 27.0968
RightForeArm  2.3029 -5.00038 -4.64867
RightHand  -0.0312685 -5.23055 -6.01586
LeftUpLeg  -7.62206 0.326775 18.1132
LeftLeg  36.6793 -7.73693 -5.76793
LeftFoot  -25.0879 -2.74906 -23.7386
LeftToes  -1.90334e-010 -8.83595e-011 4.99953e-011
2315
root  64.0125 36.1062 -21.3627 -139.713 -82.9646 147.174
RightUpLeg  -32.2559 -2.49253 -20.7957
RightLeg  40.6906 2.59381 2.11733
RightFoot  -13.9072 0.314681 18.1545
RightToes  -1.11029e-010 1.2921e-014 -6.02303e-014
Spine  3.66797 -3.94396 -5.54248
Spine1  1.562 -3.28623 -4.10571
HEad  -6.83855 -5.76186 -2.12404
LeftShoulder1  1.3419 -2.83667 -15.2743
LeftArm  0.91197 -0.196509 -18.4043
LeftForeArm  45.9241 -4.61454 -11.8527
LeftHand  -0.160441 4.32117 16.4167
RightShoulder  1.03433 1.12783 16.6121
RightArm  -37.8163 -0.110926 25.7333
RightForeArm  1.93236 -4.91314 -5.1177
RightHand  -0.0394963 -5.06272 -6.16985
LeftUpLeg  -6.2205 -6.3087 18.5718
LeftLeg  34.2149 -3.1407 -1.91971
LeftFoot  -13.4249 -0.388612 -25.3696
LeftToes  -1.90334e-010 -8.83595e-011 4.99953e-011
2316
root  62.9004 37.0372 -23.1813 -123.855 -84.2212 130.885
RightUpLeg  -27.5853 -2.18108 -18.1153
RightLeg  38.3573 0.767459 0.390027
RightFoot  -14.96 0.400758 15.8254
RightToes  -1.11029e-010 1.2921e-014 -6.02303e-014
Spine  1.93591 -4.41886 -4.74384
Spine1  1.87787 -3.84817 -3.95227
HEad  -3.44342 -7.40914 -3.15881
LeftShoulder1  1.39864 -3.32677 -14.4439
LeftArm  0.413023 -0.135698 -19.2228
LeftForeArm  47.0935 -2.10824 -12.2856
LeftHand  0.247306 7.78087 13.0793
RightShoulder  0.813408 0.328904 15.5008
RightArm  -37.4419 -2.26387 23.6012
RightForeArm  -1.1299 -4.90451 -4.96327
RightHand  -0.0385088 -5.08336 -6.1791
LeftUpLeg  -6.80351 -10.7696 17.1542
LeftLeg  34.9324 1.82834 1.75255
LeftFoot  -7.33583 0.425989 -10.9028
LeftToes  -1.90334e-010 -8.83595e-011 4.99953e-011
2317
root  61.9486 38.0809 -24.7675 -129.652 -83.2022 136.193
RightUpLeg  -23.8571 1.25586 -15.8351
RightLeg  34.5785 -0.958062 -0.955209
RightFoot  -13.2462 0.154237 14.6402
RightToes  -1.11029e-010 1.2921e-014 -6.02303e-014
Spine  1.33484 -4.15403 -3.98251
Spine1  1.14624 -3.58988 -4.24207
HEad  -0.346098 -7.64023 -3.94523
LeftShoulder1  1.32753 -2.93613 -14.6409
LeftArm  -0.565671 1.33546 -18.8714
LeftForeArm  43.7031 -0.772719 -12.2323
LeftHand  0.173139 7.34464 11.6593
RightShoulder  0.714094 -0.101101 15.3457
RightArm  -37.5881 -2.51326 20.9737
RightForeArm  -2.75883 -2.46587 -4.431
RightHand  -0.0303396 -5.25294 -6.53352
LeftUpLeg  -6.208 -10.0919 14.113
LeftLeg  35.0841 1.58214 1.57658
LeftFoot  -9.9451 0.179887 -9.86518
LeftToes  -1.90334e-010 -8.83595e-011 4.99953e-011
